<mxfile host="app.diagrams.net" agent="Mozilla/5.0 (Macintosh; Intel Mac OS X 10_15_7) AppleWebKit/605.1.15 (KHTML, like Gecko) Version/18.5 Safari/605.1.15" version="28.2.3">
  <diagram name="Seite-1" id="EvkgF1MvYiq81Qi9JRRh">
    <mxGraphModel dx="2253" dy="980" grid="1" gridSize="10" guides="1" tooltips="1" connect="1" arrows="1" fold="1" page="1" pageScale="1" pageWidth="827" pageHeight="1169" math="0" shadow="0">
      <root>
        <mxCell id="0" />
        <mxCell id="1" parent="0" />
        <mxCell id="u6r-m6rEBIpTOp65RIZz-3" value="User" style="swimlane;fontStyle=0;childLayout=stackLayout;horizontal=1;startSize=26;fillColor=none;horizontalStack=0;resizeParent=1;resizeParentMax=0;resizeLast=0;collapsible=1;marginBottom=0;whiteSpace=wrap;html=1;" parent="1" vertex="1">
          <mxGeometry x="559" y="160" width="140" height="156" as="geometry" />
        </mxCell>
        <mxCell id="u6r-m6rEBIpTOp65RIZz-4" value="id: UUID" style="text;strokeColor=none;fillColor=none;align=left;verticalAlign=top;spacingLeft=4;spacingRight=4;overflow=hidden;rotatable=0;points=[[0,0.5],[1,0.5]];portConstraint=eastwest;whiteSpace=wrap;html=1;" parent="u6r-m6rEBIpTOp65RIZz-3" vertex="1">
          <mxGeometry y="26" width="140" height="26" as="geometry" />
        </mxCell>
        <mxCell id="u6r-m6rEBIpTOp65RIZz-5" value="username: String" style="text;strokeColor=none;fillColor=none;align=left;verticalAlign=top;spacingLeft=4;spacingRight=4;overflow=hidden;rotatable=0;points=[[0,0.5],[1,0.5]];portConstraint=eastwest;whiteSpace=wrap;html=1;" parent="u6r-m6rEBIpTOp65RIZz-3" vertex="1">
          <mxGeometry y="52" width="140" height="26" as="geometry" />
        </mxCell>
        <mxCell id="u6r-m6rEBIpTOp65RIZz-40" value="email: String" style="text;strokeColor=none;fillColor=none;align=left;verticalAlign=top;spacingLeft=4;spacingRight=4;overflow=hidden;rotatable=0;points=[[0,0.5],[1,0.5]];portConstraint=eastwest;whiteSpace=wrap;html=1;" parent="u6r-m6rEBIpTOp65RIZz-3" vertex="1">
          <mxGeometry y="78" width="140" height="26" as="geometry" />
        </mxCell>
        <mxCell id="u6r-m6rEBIpTOp65RIZz-6" value="password: String" style="text;strokeColor=none;fillColor=none;align=left;verticalAlign=top;spacingLeft=4;spacingRight=4;overflow=hidden;rotatable=0;points=[[0,0.5],[1,0.5]];portConstraint=eastwest;whiteSpace=wrap;html=1;" parent="u6r-m6rEBIpTOp65RIZz-3" vertex="1">
          <mxGeometry y="104" width="140" height="26" as="geometry" />
        </mxCell>
        <mxCell id="u6r-m6rEBIpTOp65RIZz-15" value="role:&amp;nbsp;Role" style="text;strokeColor=none;fillColor=none;align=left;verticalAlign=top;spacingLeft=4;spacingRight=4;overflow=hidden;rotatable=0;points=[[0,0.5],[1,0.5]];portConstraint=eastwest;whiteSpace=wrap;html=1;" parent="u6r-m6rEBIpTOp65RIZz-3" vertex="1">
          <mxGeometry y="130" width="140" height="26" as="geometry" />
        </mxCell>
        <mxCell id="u6r-m6rEBIpTOp65RIZz-11" value="ImagePost" style="swimlane;fontStyle=0;childLayout=stackLayout;horizontal=1;startSize=26;fillColor=none;horizontalStack=0;resizeParent=1;resizeParentMax=0;resizeLast=0;collapsible=1;marginBottom=0;whiteSpace=wrap;html=1;" parent="1" vertex="1">
          <mxGeometry x="879" y="162" width="140" height="208" as="geometry" />
        </mxCell>
        <mxCell id="u6r-m6rEBIpTOp65RIZz-12" value="id: UUID" style="text;strokeColor=none;fillColor=none;align=left;verticalAlign=top;spacingLeft=4;spacingRight=4;overflow=hidden;rotatable=0;points=[[0,0.5],[1,0.5]];portConstraint=eastwest;whiteSpace=wrap;html=1;" parent="u6r-m6rEBIpTOp65RIZz-11" vertex="1">
          <mxGeometry y="26" width="140" height="26" as="geometry" />
        </mxCell>
        <mxCell id="u6r-m6rEBIpTOp65RIZz-13" value="title: String" style="text;strokeColor=none;fillColor=none;align=left;verticalAlign=top;spacingLeft=4;spacingRight=4;overflow=hidden;rotatable=0;points=[[0,0.5],[1,0.5]];portConstraint=eastwest;whiteSpace=wrap;html=1;" parent="u6r-m6rEBIpTOp65RIZz-11" vertex="1">
          <mxGeometry y="52" width="140" height="26" as="geometry" />
        </mxCell>
        <mxCell id="u6r-m6rEBIpTOp65RIZz-21" value="imageUrl: String" style="text;strokeColor=none;fillColor=none;align=left;verticalAlign=top;spacingLeft=4;spacingRight=4;overflow=hidden;rotatable=0;points=[[0,0.5],[1,0.5]];portConstraint=eastwest;whiteSpace=wrap;html=1;" parent="u6r-m6rEBIpTOp65RIZz-11" vertex="1">
          <mxGeometry y="78" width="140" height="26" as="geometry" />
        </mxCell>
        <mxCell id="u6r-m6rEBIpTOp65RIZz-14" value="description: String" style="text;strokeColor=none;fillColor=none;align=left;verticalAlign=top;spacingLeft=4;spacingRight=4;overflow=hidden;rotatable=0;points=[[0,0.5],[1,0.5]];portConstraint=eastwest;whiteSpace=wrap;html=1;" parent="u6r-m6rEBIpTOp65RIZz-11" vertex="1">
          <mxGeometry y="104" width="140" height="26" as="geometry" />
        </mxCell>
        <mxCell id="u6r-m6rEBIpTOp65RIZz-22" value="createdAt: DateTime" style="text;strokeColor=none;fillColor=none;align=left;verticalAlign=top;spacingLeft=4;spacingRight=4;overflow=hidden;rotatable=0;points=[[0,0.5],[1,0.5]];portConstraint=eastwest;whiteSpace=wrap;html=1;" parent="u6r-m6rEBIpTOp65RIZz-11" vertex="1">
          <mxGeometry y="130" width="140" height="26" as="geometry" />
        </mxCell>
        <mxCell id="u6r-m6rEBIpTOp65RIZz-37" value="userID: Long" style="text;strokeColor=none;fillColor=none;align=left;verticalAlign=top;spacingLeft=4;spacingRight=4;overflow=hidden;rotatable=0;points=[[0,0.5],[1,0.5]];portConstraint=eastwest;whiteSpace=wrap;html=1;" parent="u6r-m6rEBIpTOp65RIZz-11" vertex="1">
          <mxGeometry y="156" width="140" height="26" as="geometry" />
        </mxCell>
        <mxCell id="u6r-m6rEBIpTOp65RIZz-36" value="Like: Number" style="text;strokeColor=none;fillColor=none;align=left;verticalAlign=top;spacingLeft=4;spacingRight=4;overflow=hidden;rotatable=0;points=[[0,0.5],[1,0.5]];portConstraint=eastwest;whiteSpace=wrap;html=1;" parent="u6r-m6rEBIpTOp65RIZz-11" vertex="1">
          <mxGeometry y="182" width="140" height="26" as="geometry" />
        </mxCell>
        <mxCell id="u6r-m6rEBIpTOp65RIZz-23" value="PostLike" style="swimlane;fontStyle=0;childLayout=stackLayout;horizontal=1;startSize=26;fillColor=none;horizontalStack=0;resizeParent=1;resizeParentMax=0;resizeLast=0;collapsible=1;marginBottom=0;whiteSpace=wrap;html=1;" parent="1" vertex="1">
          <mxGeometry x="889" y="470" width="140" height="78" as="geometry" />
        </mxCell>
        <mxCell id="u6r-m6rEBIpTOp65RIZz-25" value="userId: Long" style="text;strokeColor=none;fillColor=none;align=left;verticalAlign=top;spacingLeft=4;spacingRight=4;overflow=hidden;rotatable=0;points=[[0,0.5],[1,0.5]];portConstraint=eastwest;whiteSpace=wrap;html=1;" parent="u6r-m6rEBIpTOp65RIZz-23" vertex="1">
          <mxGeometry y="26" width="140" height="26" as="geometry" />
        </mxCell>
        <mxCell id="u6r-m6rEBIpTOp65RIZz-26" value="postId: Long" style="text;strokeColor=none;fillColor=none;align=left;verticalAlign=top;spacingLeft=4;spacingRight=4;overflow=hidden;rotatable=0;points=[[0,0.5],[1,0.5]];portConstraint=eastwest;whiteSpace=wrap;html=1;" parent="u6r-m6rEBIpTOp65RIZz-23" vertex="1">
          <mxGeometry y="52" width="140" height="26" as="geometry" />
        </mxCell>
        <mxCell id="u6r-m6rEBIpTOp65RIZz-42" value="Role" style="swimlane;fontStyle=0;childLayout=stackLayout;horizontal=1;startSize=26;fillColor=none;horizontalStack=0;resizeParent=1;resizeParentMax=0;resizeLast=0;collapsible=1;marginBottom=0;whiteSpace=wrap;html=1;" parent="1" vertex="1">
          <mxGeometry x="619" y="370" width="140" height="78" as="geometry" />
        </mxCell>
        <mxCell id="u6r-m6rEBIpTOp65RIZz-43" value="Admin: enum" style="text;strokeColor=none;fillColor=none;align=left;verticalAlign=top;spacingLeft=4;spacingRight=4;overflow=hidden;rotatable=0;points=[[0,0.5],[1,0.5]];portConstraint=eastwest;whiteSpace=wrap;html=1;" parent="u6r-m6rEBIpTOp65RIZz-42" vertex="1">
          <mxGeometry y="26" width="140" height="26" as="geometry" />
        </mxCell>
        <mxCell id="u6r-m6rEBIpTOp65RIZz-44" value="User: enum" style="text;strokeColor=none;fillColor=none;align=left;verticalAlign=top;spacingLeft=4;spacingRight=4;overflow=hidden;rotatable=0;points=[[0,0.5],[1,0.5]];portConstraint=eastwest;whiteSpace=wrap;html=1;" parent="u6r-m6rEBIpTOp65RIZz-42" vertex="1">
          <mxGeometry y="52" width="140" height="26" as="geometry" />
        </mxCell>
        <mxCell id="u6r-m6rEBIpTOp65RIZz-48" value="" style="endArrow=block;endFill=1;html=1;edgeStyle=orthogonalEdgeStyle;align=left;verticalAlign=top;rounded=0;entryX=-0.007;entryY=0.077;entryDx=0;entryDy=0;entryPerimeter=0;exitX=0.993;exitY=0.115;exitDx=0;exitDy=0;exitPerimeter=0;" parent="1" source="u6r-m6rEBIpTOp65RIZz-3" target="u6r-m6rEBIpTOp65RIZz-11" edge="1">
          <mxGeometry x="-1" relative="1" as="geometry">
            <mxPoint x="779" y="170" as="sourcePoint" />
            <mxPoint x="939" y="170" as="targetPoint" />
            <mxPoint as="offset" />
          </mxGeometry>
        </mxCell>
        <mxCell id="u6r-m6rEBIpTOp65RIZz-49" value="1" style="edgeLabel;resizable=0;html=1;align=left;verticalAlign=bottom;" parent="u6r-m6rEBIpTOp65RIZz-48" connectable="0" vertex="1">
          <mxGeometry x="-1" relative="1" as="geometry" />
        </mxCell>
        <mxCell id="u6r-m6rEBIpTOp65RIZz-52" value="" style="endArrow=block;startArrow=block;endFill=1;startFill=1;html=1;rounded=0;entryX=-0.021;entryY=0.141;entryDx=0;entryDy=0;exitX=0;exitY=0.5;exitDx=0;exitDy=0;entryPerimeter=0;" parent="1" source="u6r-m6rEBIpTOp65RIZz-15" target="u6r-m6rEBIpTOp65RIZz-42" edge="1">
          <mxGeometry width="160" relative="1" as="geometry">
            <mxPoint x="609" y="310" as="sourcePoint" />
            <mxPoint x="769" y="310" as="targetPoint" />
            <Array as="points">
              <mxPoint x="489" y="303" />
              <mxPoint x="489" y="380" />
            </Array>
          </mxGeometry>
        </mxCell>
        <mxCell id="u6r-m6rEBIpTOp65RIZz-53" value="" style="endArrow=block;endFill=1;html=1;edgeStyle=orthogonalEdgeStyle;align=left;verticalAlign=top;rounded=0;entryX=1.036;entryY=0.154;entryDx=0;entryDy=0;entryPerimeter=0;" parent="1" target="u6r-m6rEBIpTOp65RIZz-23" edge="1">
          <mxGeometry x="-1" relative="1" as="geometry">
            <mxPoint x="1019" y="360" as="sourcePoint" />
            <mxPoint x="1179" y="360" as="targetPoint" />
            <Array as="points">
              <mxPoint x="1139" y="360" />
              <mxPoint x="1139" y="480" />
              <mxPoint x="1034" y="480" />
            </Array>
            <mxPoint as="offset" />
          </mxGeometry>
        </mxCell>
        <mxCell id="u6r-m6rEBIpTOp65RIZz-54" value="1" style="edgeLabel;resizable=0;html=1;align=left;verticalAlign=bottom;" parent="u6r-m6rEBIpTOp65RIZz-53" connectable="0" vertex="1">
          <mxGeometry x="-1" relative="1" as="geometry" />
        </mxCell>
        <mxCell id="u6r-m6rEBIpTOp65RIZz-55" value="" style="endArrow=block;startArrow=block;endFill=1;startFill=1;html=1;rounded=0;exitX=1;exitY=0.5;exitDx=0;exitDy=0;entryX=0;entryY=0.5;entryDx=0;entryDy=0;" parent="1" source="u6r-m6rEBIpTOp65RIZz-4" target="u6r-m6rEBIpTOp65RIZz-25" edge="1">
          <mxGeometry width="160" relative="1" as="geometry">
            <mxPoint x="669" y="330" as="sourcePoint" />
            <mxPoint x="829" y="330" as="targetPoint" />
          </mxGeometry>
        </mxCell>
        <mxCell id="u6r-m6rEBIpTOp65RIZz-56" value="User" style="swimlane;fontStyle=0;childLayout=stackLayout;horizontal=1;startSize=26;fillColor=none;horizontalStack=0;resizeParent=1;resizeParentMax=0;resizeLast=0;collapsible=1;marginBottom=0;whiteSpace=wrap;html=1;" parent="1" vertex="1">
          <mxGeometry x="-180" y="140" width="140" height="102" as="geometry" />
        </mxCell>
        <mxCell id="u6r-m6rEBIpTOp65RIZz-58" value="username" style="text;strokeColor=none;fillColor=none;align=left;verticalAlign=top;spacingLeft=4;spacingRight=4;overflow=hidden;rotatable=0;points=[[0,0.5],[1,0.5]];portConstraint=eastwest;whiteSpace=wrap;html=1;" parent="u6r-m6rEBIpTOp65RIZz-56" vertex="1">
          <mxGeometry y="26" width="140" height="24" as="geometry" />
        </mxCell>
        <mxCell id="u6r-m6rEBIpTOp65RIZz-59" value="email" style="text;strokeColor=none;fillColor=none;align=left;verticalAlign=top;spacingLeft=4;spacingRight=4;overflow=hidden;rotatable=0;points=[[0,0.5],[1,0.5]];portConstraint=eastwest;whiteSpace=wrap;html=1;" parent="u6r-m6rEBIpTOp65RIZz-56" vertex="1">
          <mxGeometry y="50" width="140" height="26" as="geometry" />
        </mxCell>
        <mxCell id="u6r-m6rEBIpTOp65RIZz-60" value="password" style="text;strokeColor=none;fillColor=none;align=left;verticalAlign=top;spacingLeft=4;spacingRight=4;overflow=hidden;rotatable=0;points=[[0,0.5],[1,0.5]];portConstraint=eastwest;whiteSpace=wrap;html=1;" parent="u6r-m6rEBIpTOp65RIZz-56" vertex="1">
          <mxGeometry y="76" width="140" height="26" as="geometry" />
        </mxCell>
        <mxCell id="u6r-m6rEBIpTOp65RIZz-62" value="ImagePost" style="swimlane;fontStyle=0;childLayout=stackLayout;horizontal=1;startSize=26;fillColor=none;horizontalStack=0;resizeParent=1;resizeParentMax=0;resizeLast=0;collapsible=1;marginBottom=0;whiteSpace=wrap;html=1;" parent="1" vertex="1">
          <mxGeometry x="140" y="142" width="140" height="156" as="geometry" />
        </mxCell>
        <mxCell id="u6r-m6rEBIpTOp65RIZz-64" value="title" style="text;strokeColor=none;fillColor=none;align=left;verticalAlign=top;spacingLeft=4;spacingRight=4;overflow=hidden;rotatable=0;points=[[0,0.5],[1,0.5]];portConstraint=eastwest;whiteSpace=wrap;html=1;" parent="u6r-m6rEBIpTOp65RIZz-62" vertex="1">
          <mxGeometry y="26" width="140" height="26" as="geometry" />
        </mxCell>
        <mxCell id="u6r-m6rEBIpTOp65RIZz-65" value="image" style="text;strokeColor=none;fillColor=none;align=left;verticalAlign=top;spacingLeft=4;spacingRight=4;overflow=hidden;rotatable=0;points=[[0,0.5],[1,0.5]];portConstraint=eastwest;whiteSpace=wrap;html=1;" parent="u6r-m6rEBIpTOp65RIZz-62" vertex="1">
          <mxGeometry y="52" width="140" height="26" as="geometry" />
        </mxCell>
        <mxCell id="u6r-m6rEBIpTOp65RIZz-66" value="description" style="text;strokeColor=none;fillColor=none;align=left;verticalAlign=top;spacingLeft=4;spacingRight=4;overflow=hidden;rotatable=0;points=[[0,0.5],[1,0.5]];portConstraint=eastwest;whiteSpace=wrap;html=1;" parent="u6r-m6rEBIpTOp65RIZz-62" vertex="1">
          <mxGeometry y="78" width="140" height="26" as="geometry" />
        </mxCell>
        <mxCell id="u6r-m6rEBIpTOp65RIZz-67" value="date" style="text;strokeColor=none;fillColor=none;align=left;verticalAlign=top;spacingLeft=4;spacingRight=4;overflow=hidden;rotatable=0;points=[[0,0.5],[1,0.5]];portConstraint=eastwest;whiteSpace=wrap;html=1;" parent="u6r-m6rEBIpTOp65RIZz-62" vertex="1">
          <mxGeometry y="104" width="140" height="26" as="geometry" />
        </mxCell>
        <mxCell id="u6r-m6rEBIpTOp65RIZz-69" value="Like" style="text;strokeColor=none;fillColor=none;align=left;verticalAlign=top;spacingLeft=4;spacingRight=4;overflow=hidden;rotatable=0;points=[[0,0.5],[1,0.5]];portConstraint=eastwest;whiteSpace=wrap;html=1;" parent="u6r-m6rEBIpTOp65RIZz-62" vertex="1">
          <mxGeometry y="130" width="140" height="26" as="geometry" />
        </mxCell>
        <mxCell id="u6r-m6rEBIpTOp65RIZz-70" value="PostLike" style="swimlane;fontStyle=0;childLayout=stackLayout;horizontal=1;startSize=26;fillColor=none;horizontalStack=0;resizeParent=1;resizeParentMax=0;resizeLast=0;collapsible=1;marginBottom=0;whiteSpace=wrap;html=1;" parent="1" vertex="1">
          <mxGeometry x="150" y="450" width="140" height="52" as="geometry" />
        </mxCell>
        <mxCell id="u6r-m6rEBIpTOp65RIZz-74" value="Role" style="swimlane;fontStyle=0;childLayout=stackLayout;horizontal=1;startSize=26;fillColor=none;horizontalStack=0;resizeParent=1;resizeParentMax=0;resizeLast=0;collapsible=1;marginBottom=0;whiteSpace=wrap;html=1;" parent="1" vertex="1">
          <mxGeometry x="-120" y="350" width="140" height="52" as="geometry" />
        </mxCell>
        <mxCell id="u6r-m6rEBIpTOp65RIZz-77" value="" style="endArrow=block;endFill=1;html=1;edgeStyle=orthogonalEdgeStyle;align=left;verticalAlign=top;rounded=0;entryX=-0.007;entryY=0.077;entryDx=0;entryDy=0;entryPerimeter=0;exitX=0.993;exitY=0.115;exitDx=0;exitDy=0;exitPerimeter=0;" parent="1" source="u6r-m6rEBIpTOp65RIZz-56" target="u6r-m6rEBIpTOp65RIZz-62" edge="1">
          <mxGeometry x="-1" relative="1" as="geometry">
            <mxPoint x="40" y="150" as="sourcePoint" />
            <mxPoint x="200" y="150" as="targetPoint" />
            <mxPoint as="offset" />
            <Array as="points">
              <mxPoint x="139" y="155" />
            </Array>
          </mxGeometry>
        </mxCell>
        <mxCell id="u6r-m6rEBIpTOp65RIZz-79" value="" style="endArrow=block;startArrow=block;endFill=1;startFill=1;html=1;rounded=0;entryX=-0.021;entryY=0.141;entryDx=0;entryDy=0;exitX=0;exitY=0.5;exitDx=0;exitDy=0;entryPerimeter=0;" parent="1" source="u6r-m6rEBIpTOp65RIZz-60" target="u6r-m6rEBIpTOp65RIZz-74" edge="1">
          <mxGeometry width="160" relative="1" as="geometry">
            <mxPoint x="-180.0000000000001" y="255" as="sourcePoint" />
            <mxPoint x="30" y="290" as="targetPoint" />
            <Array as="points">
              <mxPoint x="-250" y="229" />
              <mxPoint x="-250" y="360" />
            </Array>
          </mxGeometry>
        </mxCell>
        <mxCell id="u6r-m6rEBIpTOp65RIZz-80" value="" style="endArrow=block;endFill=1;html=1;edgeStyle=orthogonalEdgeStyle;align=left;verticalAlign=top;rounded=0;entryX=1.036;entryY=0.154;entryDx=0;entryDy=0;entryPerimeter=0;exitX=1;exitY=0.5;exitDx=0;exitDy=0;" parent="1" source="u6r-m6rEBIpTOp65RIZz-69" target="u6r-m6rEBIpTOp65RIZz-70" edge="1">
          <mxGeometry x="-1" relative="1" as="geometry">
            <mxPoint x="280" y="340" as="sourcePoint" />
            <mxPoint x="440" y="340" as="targetPoint" />
            <Array as="points">
              <mxPoint x="331" y="285" />
              <mxPoint x="331" y="460" />
              <mxPoint x="295" y="460" />
            </Array>
            <mxPoint as="offset" />
          </mxGeometry>
        </mxCell>
        <mxCell id="u6r-m6rEBIpTOp65RIZz-82" value="" style="endArrow=block;startArrow=block;endFill=1;startFill=1;html=1;rounded=0;exitX=1;exitY=0.5;exitDx=0;exitDy=0;entryX=0;entryY=0.5;entryDx=0;entryDy=0;" parent="1" edge="1">
          <mxGeometry width="160" relative="1" as="geometry">
            <mxPoint x="-40" y="179" as="sourcePoint" />
            <mxPoint x="150" y="489" as="targetPoint" />
          </mxGeometry>
        </mxCell>
      </root>
    </mxGraphModel>
  </diagram>
</mxfile>
